<mxfile host="app.diagrams.net" agent="Mozilla/5.0 (Windows NT 10.0; Win64; x64) AppleWebKit/537.36 (KHTML, like Gecko) Chrome/139.0.0.0 Safari/537.36" version="28.2.3">
  <diagram name="Страница — 1" id="cgKBQznsk8lHFN41CZHd">
    <mxGraphModel dx="1042" dy="527" grid="1" gridSize="10" guides="1" tooltips="1" connect="1" arrows="1" fold="1" page="1" pageScale="1" pageWidth="827" pageHeight="1169" math="0" shadow="0">
      <root>
        <mxCell id="0" />
        <mxCell id="1" parent="0" />
        <mxCell id="moqrvu-MsYkRPPKZeSAe-3" value="database.db" style="fontColor=#0066CC;verticalAlign=top;verticalLabelPosition=bottom;labelPosition=center;align=center;html=1;outlineConnect=0;fillColor=#CCCCCC;strokeColor=#6881B3;gradientColor=none;gradientDirection=north;strokeWidth=2;shape=mxgraph.networks.storage;" vertex="1" parent="1">
          <mxGeometry x="700" y="200.25" width="90" height="84.5" as="geometry" />
        </mxCell>
        <mxCell id="moqrvu-MsYkRPPKZeSAe-7" value="test.local" style="fontColor=#0066CC;verticalAlign=top;verticalLabelPosition=bottom;labelPosition=center;align=center;html=1;outlineConnect=0;fillColor=#CCCCCC;strokeColor=#6881B3;gradientColor=none;gradientDirection=north;strokeWidth=2;shape=mxgraph.networks.web_server;" vertex="1" parent="1">
          <mxGeometry x="300" y="190" width="105" height="105" as="geometry" />
        </mxCell>
        <mxCell id="moqrvu-MsYkRPPKZeSAe-13" value="http" style="edgeStyle=orthogonalEdgeStyle;rounded=0;orthogonalLoop=1;jettySize=auto;html=1;" edge="1" parent="1" source="moqrvu-MsYkRPPKZeSAe-8" target="moqrvu-MsYkRPPKZeSAe-7">
          <mxGeometry relative="1" as="geometry" />
        </mxCell>
        <mxCell id="moqrvu-MsYkRPPKZeSAe-8" value="Firewall" style="fontColor=#0066CC;verticalAlign=top;verticalLabelPosition=bottom;labelPosition=center;align=center;html=1;outlineConnect=0;fillColor=#CCCCCC;strokeColor=#6881B3;gradientColor=none;gradientDirection=north;strokeWidth=2;shape=mxgraph.networks.firewall;" vertex="1" parent="1">
          <mxGeometry x="190" y="200.5" width="70" height="70" as="geometry" />
        </mxCell>
        <mxCell id="moqrvu-MsYkRPPKZeSAe-15" value="" style="edgeStyle=orthogonalEdgeStyle;rounded=0;orthogonalLoop=1;jettySize=auto;html=1;" edge="1" parent="1" source="moqrvu-MsYkRPPKZeSAe-10" target="moqrvu-MsYkRPPKZeSAe-3">
          <mxGeometry relative="1" as="geometry" />
        </mxCell>
        <mxCell id="moqrvu-MsYkRPPKZeSAe-10" value="" style="sketch=0;aspect=fixed;pointerEvents=1;shadow=0;dashed=0;html=1;strokeColor=none;labelPosition=center;verticalLabelPosition=bottom;verticalAlign=top;align=center;fillColor=#00188D;shape=mxgraph.mscae.enterprise.application" vertex="1" parent="1">
          <mxGeometry x="520" y="209" width="90.44" height="61.5" as="geometry" />
        </mxCell>
        <mxCell id="moqrvu-MsYkRPPKZeSAe-12" value="ssh(22) http" style="edgeStyle=orthogonalEdgeStyle;rounded=0;orthogonalLoop=1;jettySize=auto;html=1;exitX=0.5;exitY=1;exitDx=0;exitDy=0;exitPerimeter=0;entryX=0;entryY=0.5;entryDx=0;entryDy=0;entryPerimeter=0;" edge="1" parent="1" source="moqrvu-MsYkRPPKZeSAe-11" target="moqrvu-MsYkRPPKZeSAe-8">
          <mxGeometry relative="1" as="geometry">
            <mxPoint x="80" y="200" as="targetPoint" />
          </mxGeometry>
        </mxCell>
        <mxCell id="moqrvu-MsYkRPPKZeSAe-11" value="Internet" style="sketch=0;aspect=fixed;pointerEvents=1;shadow=0;dashed=0;html=1;strokeColor=none;labelPosition=center;verticalLabelPosition=bottom;verticalAlign=top;align=center;fillColor=#00188D;shape=mxgraph.mscae.enterprise.internet_hollow" vertex="1" parent="1">
          <mxGeometry x="30" y="110" width="96.77" height="60" as="geometry" />
        </mxCell>
        <mxCell id="moqrvu-MsYkRPPKZeSAe-14" value="localhost:5000" style="edgeStyle=orthogonalEdgeStyle;rounded=0;orthogonalLoop=1;jettySize=auto;html=1;entryX=0;entryY=0.5;entryDx=0;entryDy=0;entryPerimeter=0;" edge="1" parent="1" source="moqrvu-MsYkRPPKZeSAe-7" target="moqrvu-MsYkRPPKZeSAe-10">
          <mxGeometry relative="1" as="geometry" />
        </mxCell>
      </root>
    </mxGraphModel>
  </diagram>
</mxfile>
